<svg width="260" height="117" viewBox="0 0 260 117" fill="none" xmlns="http://www.w3.org/2000/svg">
<path d="M0.136364 59.7727V55.9545C5.31818 55.9242 8.86364 54.9394 10.7727 53C12.7121 51.0303 13.6818 47.4848 13.6818 42.3636V21.6364C13.6818 18.0303 14.0303 14.9091 14.7273 12.2727C15.4545 9.63636 16.5758 7.45454 18.0909 5.72727C19.6061 3.96969 21.5606 2.66666 23.9545 1.81818C26.3485 0.969691 29.2273 0.545448 32.5909 0.545448V5.45454C29.3182 5.42424 26.6667 5.98485 24.6364 7.13636C22.6364 8.25757 21.1667 10.0151 20.2273 12.4091C19.3182 14.803 18.8636 17.8788 18.8636 21.6364V43.5909C18.8636 46.3788 18.5606 48.7879 17.9545 50.8182C17.3788 52.8485 16.3939 54.5303 15 55.8636C13.6061 57.1667 11.697 58.1515 9.27273 58.8182C6.84849 59.4545 3.80303 59.7727 0.136364 59.7727ZM32.5909 116.909C29.2273 116.909 26.3485 116.485 23.9545 115.636C21.5606 114.788 19.6061 113.485 18.0909 111.727C16.5758 110 15.4545 107.818 14.7273 105.182C14.0303 102.545 13.6818 99.4242 13.6818 95.8182V75.0909C13.6818 69.9697 12.7121 66.4394 10.7727 64.5C8.86364 62.5303 5.31818 61.5303 0.136364 61.5V57.6818C3.80303 57.7121 6.84849 58.0606 9.27273 58.7273C11.697 59.3636 13.6061 60.3333 15 61.6364C16.3939 62.9394 17.3788 64.6061 17.9545 66.6364C18.5606 68.6667 18.8636 71.0758 18.8636 73.8636V95.8182C18.8636 99.5758 19.3182 102.652 20.2273 105.045C21.1667 107.439 22.6364 109.197 24.6364 110.318C26.6667 111.439 29.3182 112 32.5909 112V116.909ZM0.136364 61.5V55.9545H10.2727V61.5H0.136364ZM259.509 57.6818V61.5C254.327 61.5303 250.766 62.5303 248.827 64.5C246.918 66.4394 245.963 69.9697 245.963 75.0909V95.8182C245.963 99.4242 245.599 102.545 244.872 105.182C244.175 107.818 243.069 110 241.554 111.727C240.039 113.485 238.084 114.788 235.69 115.636C233.296 116.485 230.418 116.909 227.054 116.909V112C230.357 112 233.009 111.439 235.009 110.318C237.009 109.197 238.463 107.439 239.372 105.045C240.312 102.652 240.781 99.5758 240.781 95.8182V73.8636C240.781 71.0758 241.069 68.6667 241.645 66.6364C242.251 64.6061 243.251 62.9394 244.645 61.6364C246.039 60.303 247.948 59.3182 250.372 58.6818C252.796 58.0151 255.842 57.6818 259.509 57.6818ZM227.054 0.545448C230.418 0.545448 233.296 0.969691 235.69 1.81818C238.084 2.66666 240.039 3.96969 241.554 5.72727C243.069 7.45454 244.175 9.63636 244.872 12.2727C245.599 14.9091 245.963 18.0303 245.963 21.6364V42.3636C245.963 47.4848 246.918 51.0303 248.827 53C250.766 54.9394 254.327 55.9242 259.509 55.9545V59.7727C255.842 59.7424 252.796 59.4091 250.372 58.7727C247.948 58.1061 246.039 57.1212 244.645 55.8182C243.251 54.5152 242.251 52.8485 241.645 50.8182C241.069 48.7879 240.781 46.3788 240.781 43.5909V21.6364C240.781 17.8788 240.312 14.803 239.372 12.4091C238.463 10.0151 237.009 8.25757 235.009 7.13636C233.009 5.98485 230.357 5.42424 227.054 5.45454V0.545448ZM259.509 55.9545V61.5H249.372V55.9545H259.509Z" fill="#34D399"/>
<path d="M56.2131 98V10.7273H87.321C94.1108 10.7273 99.7358 11.9631 104.196 14.4347C108.656 16.9062 111.994 20.2869 114.21 24.5767C116.426 28.8381 117.534 33.6392 117.534 38.9801C117.534 44.3494 116.412 49.179 114.168 53.4688C111.952 57.7301 108.599 61.1108 104.111 63.6108C99.6506 66.0824 94.0398 67.3182 87.2784 67.3182H65.8864V56.1534H86.0852C90.375 56.1534 93.8551 55.4148 96.5256 53.9375C99.196 52.4318 101.156 50.3864 102.406 47.8011C103.656 45.2159 104.281 42.2756 104.281 38.9801C104.281 35.6847 103.656 32.7585 102.406 30.2017C101.156 27.6449 99.1818 25.642 96.483 24.1932C93.8125 22.7443 90.2898 22.0199 85.9148 22.0199H69.3807V98H56.2131ZM203.411 10.7273V98H191.309L146.948 33.9943H146.138V98H132.971V10.7273H145.158L189.562 74.8182H190.371V10.7273H203.411Z" fill="white"/>
</svg>
